solid model
facet normal 0.0 1.0 0.0
outer loop
vertex 0.0 0.01500000048 0.0574999993
vertex 0.01799999956 0.01500000048 0.0
vertex 0.0 0.01500000048 0.0
endloop
endfacet
facet normal 0.0 1.0 0.0
outer loop
vertex 0.01799999956 0.01500000048 0.0
vertex 0.0 0.01500000048 0.0574999993
vertex 0.01799999956 0.01500000048 0.06749999962
endloop
endfacet
facet normal 0.0 1.0 0.0
outer loop
vertex 0.01799999956 0.01500000048 0.06749999962
vertex 0.0 0.01500000048 0.0574999993
vertex 0.00500000016 0.01500000048 0.06249999946
endloop
endfacet
facet normal 0.0 1.0 0.0
outer loop
vertex 0.01799999956 0.01500000048 0.06749999962
vertex 0.00500000016 0.01500000048 0.06249999946
vertex 0.0 0.01500000048 0.06749999962
endloop
endfacet
facet normal 0.0 1.0 0.0
outer loop
vertex 0.01799999956 0.01500000048 0.06749999962
vertex 0.0 0.01500000048 0.06749999962
vertex 0.0 0.01500000048 0.10000000066
endloop
endfacet
facet normal 0.0 1.0 0.0
outer loop
vertex 0.01799999956 0.01500000048 0.06749999962
vertex 0.0 0.01500000048 0.10000000066
vertex 0.00500000016 0.01500000048 0.10000000066
endloop
endfacet
facet normal -1.0 0.0 0.0
outer loop
vertex 0.0 0.01500000048 0.0574999993
vertex 0.0 -0.01500000048 0.0
vertex 0.0 -0.01500000048 0.0574999993
endloop
endfacet
facet normal -1.0 0.0 0.0
outer loop
vertex 0.0 -0.01500000048 0.0
vertex 0.0 0.01500000048 0.0574999993
vertex 0.0 0.01500000048 0.0
endloop
endfacet
facet normal -0.707106781186547 0.0 0.707106781186548
outer loop
vertex 0.00500000016 -0.01500000048 0.06249999946
vertex 0.0 0.01500000048 0.0574999993
vertex 0.0 -0.01500000048 0.0574999993
endloop
endfacet
facet normal -0.707106781186547 0.0 0.707106781186548
outer loop
vertex 0.0 0.01500000048 0.0574999993
vertex 0.00500000016 -0.01500000048 0.06249999946
vertex 0.00500000016 0.01500000048 0.06249999946
endloop
endfacet
facet normal -0.707106781186548 0.0 -0.707106781186547
outer loop
vertex 0.0 0.01500000048 0.06749999962
vertex 0.00500000016 -0.01500000048 0.06249999946
vertex 0.0 -0.01500000048 0.06749999962
endloop
endfacet
facet normal -0.707106781186548 0.0 -0.707106781186547
outer loop
vertex 0.00500000016 -0.01500000048 0.06249999946
vertex 0.0 0.01500000048 0.06749999962
vertex 0.00500000016 0.01500000048 0.06249999946
endloop
endfacet
facet normal -1.0 0.0 0.0
outer loop
vertex 0.0 0.01500000048 0.10000000066
vertex 0.0 -0.01500000048 0.06749999962
vertex 0.0 -0.01500000048 0.10000000066
endloop
endfacet
facet normal -1.0 0.0 0.0
outer loop
vertex 0.0 -0.01500000048 0.06749999962
vertex 0.0 0.01500000048 0.10000000066
vertex 0.0 0.01500000048 0.06749999962
endloop
endfacet
facet normal 0.0 0.0 1.0
outer loop
vertex 0.00500000016 -0.01500000048 0.10000000066
vertex 0.0 0.01500000048 0.10000000066
vertex 0.0 -0.01500000048 0.10000000066
endloop
endfacet
facet normal 0.0 0.0 1.0
outer loop
vertex 0.0 0.01500000048 0.10000000066
vertex 0.00500000016 -0.01500000048 0.10000000066
vertex 0.00500000016 0.01500000048 0.10000000066
endloop
endfacet
facet normal 0.92847670089409 0.0 0.371390651332027
outer loop
vertex 0.01799999956 0.01500000048 0.06749999962
vertex 0.00500000016 -0.01500000048 0.10000000066
vertex 0.01799999956 -0.01500000048 0.06749999962
endloop
endfacet
facet normal 0.92847670089409 0.0 0.371390651332027
outer loop
vertex 0.00500000016 -0.01500000048 0.10000000066
vertex 0.01799999956 0.01500000048 0.06749999962
vertex 0.00500000016 0.01500000048 0.10000000066
endloop
endfacet
facet normal 1.0 0.0 0.0
outer loop
vertex 0.01799999956 0.01500000048 0.0
vertex 0.01799999956 -0.01500000048 0.06749999962
vertex 0.01799999956 -0.01500000048 0.0
endloop
endfacet
facet normal 1.0 0.0 0.0
outer loop
vertex 0.01799999956 -0.01500000048 0.06749999962
vertex 0.01799999956 0.01500000048 0.0
vertex 0.01799999956 0.01500000048 0.06749999962
endloop
endfacet
facet normal 0.0 0.0 -1.0
outer loop
vertex 0.01799999956 0.01500000048 0.0
vertex 0.0 -0.01500000048 0.0
vertex 0.0 0.01500000048 0.0
endloop
endfacet
facet normal 0.0 0.0 -1.0
outer loop
vertex 0.0 -0.01500000048 0.0
vertex 0.01799999956 0.01500000048 0.0
vertex 0.01799999956 -0.01500000048 0.0
endloop
endfacet
facet normal 0.0 -1.0 0.0
outer loop
vertex 0.01799999956 -0.01500000048 0.06749999962
vertex 0.0 -0.01500000048 0.0
vertex 0.01799999956 -0.01500000048 0.0
endloop
endfacet
facet normal 0.0 -1.0 0.0
outer loop
vertex 0.0 -0.01500000048 0.0
vertex 0.01799999956 -0.01500000048 0.06749999962
vertex 0.0 -0.01500000048 0.0574999993
endloop
endfacet
facet normal 0.0 -1.0 0.0
outer loop
vertex 0.0 -0.01500000048 0.0574999993
vertex 0.01799999956 -0.01500000048 0.06749999962
vertex 0.00500000016 -0.01500000048 0.06249999946
endloop
endfacet
facet normal 0.0 -1.0 0.0
outer loop
vertex 0.00500000016 -0.01500000048 0.06249999946
vertex 0.01799999956 -0.01500000048 0.06749999962
vertex 0.0 -0.01500000048 0.06749999962
endloop
endfacet
facet normal 0.0 -1.0 0.0
outer loop
vertex 0.0 -0.01500000048 0.06749999962
vertex 0.01799999956 -0.01500000048 0.06749999962
vertex 0.00500000016 -0.01500000048 0.10000000066
endloop
endfacet
facet normal 0.0 -1.0 0.0
outer loop
vertex 0.0 -0.01500000048 0.06749999962
vertex 0.00500000016 -0.01500000048 0.10000000066
vertex 0.0 -0.01500000048 0.10000000066
endloop
endfacet
endsolid model
